<?xml version="1.0" standalone="no"?>
<!DOCTYPE svg PUBLIC "-//W3C//DTD SVG 20010904//EN"
 "http://www.w3.org/TR/2001/REC-SVG-20010904/DTD/svg10.dtd">
<svg version="1.0" xmlns="http://www.w3.org/2000/svg"
 width="230.000000pt" height="195.000000pt" viewBox="0 0 230.000000 195.000000"
 preserveAspectRatio="xMidYMid meet">

<g transform="translate(0.000000,195.000000) scale(0.100000,-0.100000)"
fill="#000000" stroke="none">
<path d="M410 1383 l0 -508 30 -51 c33 -58 77 -99 135 -125 35 -16 68 -19 248
-19 l207 0 0 243 c0 222 -2 244 -19 271 -19 28 -95 86 -113 86 -4 0 -8 74 -8
165 0 117 -4 175 -14 198 -17 42 -66 83 -114 97 -44 12 -222 14 -222 2 0 -4
15 -22 33 -39 28 -27 41 -31 106 -36 62 -5 79 -10 100 -32 25 -25 26 -29 29
-185 l3 -160 -30 0 -31 0 0 138 c0 96 -4 143 -13 156 -17 23 -91 39 -149 31
l-48 -7 26 -33 c19 -26 34 -35 62 -37 l37 -3 3 -133 3 -134 -31 -34 c-44 -51
-62 -91 -67 -155 -5 -50 -2 -67 21 -114 38 -77 90 -106 205 -116 47 -3 94 -10
105 -14 17 -8 17 -6 2 23 -12 22 -14 46 -10 89 4 49 2 63 -17 93 l-23 35 -6
-48 c-7 -60 -36 -91 -85 -91 -42 0 -89 40 -105 90 -12 35 -1 94 23 125 20 26
80 59 107 59 44 0 102 -21 126 -45 24 -24 24 -28 24 -210 l0 -185 -149 0 c-82
0 -162 5 -178 11 -40 15 -82 57 -104 104 -17 37 -19 73 -19 484 l0 443 138 -4
c160 -5 204 -19 256 -80 46 -53 56 -102 56 -266 l0 -139 26 -14 c15 -7 48 -38
74 -67 l48 -53 21 35 c12 19 44 51 72 71 l49 37 0 146 c0 169 8 206 52 251 63
65 97 75 253 75 l140 1 0 -445 c0 -442 0 -445 -22 -487 -13 -23 -39 -54 -60
-70 l-36 -28 -166 0 -166 0 0 182 c0 178 1 182 25 208 44 47 140 57 197 20 88
-58 80 -202 -14 -241 -29 -13 -41 -13 -65 -3 -36 15 -48 37 -48 88 0 49 -14
52 -36 9 -12 -23 -15 -47 -11 -88 3 -37 0 -64 -9 -81 -18 -33 -17 -43 4 -33 9
4 56 10 104 14 76 5 93 10 130 36 62 43 88 94 88 174 0 71 -19 124 -63 176
-26 31 -27 35 -27 168 l0 136 33 0 c24 0 42 9 66 34 l32 33 -41 7 c-23 4 -64
4 -91 0 -74 -10 -79 -22 -79 -186 l0 -138 -30 0 -30 0 0 159 c0 156 0 159 25
183 27 27 63 38 127 38 30 0 50 8 79 31 21 17 39 35 39 41 0 7 -40 9 -112 6
-133 -4 -176 -21 -216 -81 -26 -39 -27 -46 -30 -213 l-4 -172 -48 -30 c-85
-53 -85 -52 -88 -330 l-3 -243 223 3 224 3 51 33 c28 18 62 49 76 70 58 84 57
69 57 607 l0 497 -193 -4 -193 -3 -66 -33 c-41 -20 -79 -47 -98 -71 -55 -70
-63 -103 -68 -261 -4 -130 -6 -147 -25 -167 -25 -28 -31 -28 -67 -1 l-30 22 0
145 c0 132 -2 151 -24 196 -27 58 -89 118 -155 149 -41 19 -67 21 -238 24
l-193 4 0 -509z"/>
<path d="M460 490 c0 -53 4 -90 10 -90 6 0 10 20 10 44 0 46 19 72 45 62 11
-4 15 -20 15 -56 0 -28 5 -50 10 -50 7 0 10 22 8 58 l-3 57 -38 0 c-35 0 -37
2 -37 33 0 17 -4 32 -10 32 -6 0 -10 -37 -10 -90z"/>
<path d="M710 490 c0 -53 4 -90 10 -90 6 0 10 20 10 44 0 46 19 72 45 62 11
-4 15 -20 15 -56 0 -28 5 -50 10 -50 7 0 10 22 8 58 l-3 57 -38 0 c-35 0 -37
2 -37 33 0 17 -4 32 -10 32 -6 0 -10 -37 -10 -90z"/>
<path d="M986 573 c-3 -3 -6 -17 -6 -29 0 -18 -6 -23 -32 -26 -44 -4 -66 -45
-46 -85 12 -25 19 -28 61 -29 l47 -1 0 83 c0 76 -7 103 -24 87z m-18 -72 c8
-5 12 -22 10 -42 -2 -29 -7 -34 -28 -34 -20 0 -26 6 -28 28 -2 16 2 35 9 43
13 16 19 17 37 5z"/>
<path d="M1340 490 c0 -53 4 -90 10 -90 6 0 10 20 10 44 0 46 19 72 45 62 11
-4 15 -20 15 -56 0 -28 5 -50 10 -50 7 0 10 22 8 58 l-3 57 -37 -1 c-37 -1
-38 0 -38 32 0 19 -4 34 -10 34 -6 0 -10 -37 -10 -90z"/>
<path d="M358 559 c-31 -17 -22 -57 17 -80 53 -32 43 -65 -18 -61 -17 2 -26
-2 -22 -8 9 -14 68 -13 83 2 24 24 14 58 -23 80 -42 24 -43 51 -2 56 15 2 27
8 27 13 0 12 -40 11 -62 -2z"/>
<path d="M850 555 c0 -8 5 -15 10 -15 6 0 10 7 10 15 0 8 -4 15 -10 15 -5 0
-10 -7 -10 -15z"/>
<path d="M1100 495 c0 -41 -1 -78 -2 -82 -6 -17 64 -14 83 3 23 21 24 37 4 58
-9 9 -11 17 -5 21 5 3 10 17 10 30 0 27 -26 45 -64 45 -26 0 -26 -1 -26 -75z
m65 30 c0 -13 -8 -21 -22 -23 -19 -3 -23 1 -23 23 0 22 4 26 23 23 14 -2 22
-10 22 -23z m4 -59 c15 -17 5 -43 -19 -49 -24 -6 -30 0 -30 35 0 21 5 28 19
28 10 0 24 -6 30 -14z"/>
<path d="M600 511 c0 -5 8 -7 18 -4 10 2 24 -2 31 -10 10 -13 6 -17 -24 -27
-31 -10 -36 -16 -33 -38 3 -24 7 -27 46 -28 l42 -1 0 47 c0 25 -5 51 -12 58
-14 14 -68 16 -68 3z m58 -68 c-4 -22 -48 -31 -48 -10 0 19 10 27 32 27 13 0
18 -6 16 -17z"/>
<path d="M850 460 c0 -33 4 -60 10 -60 6 0 10 27 10 60 0 33 -4 60 -10 60 -6
0 -10 -27 -10 -60z"/>
<path d="M1230 511 c0 -5 8 -7 18 -4 10 2 24 -2 30 -9 9 -12 4 -17 -24 -27
-30 -11 -35 -17 -32 -39 3 -24 7 -27 46 -28 l42 -1 0 47 c0 25 -5 51 -12 58
-14 14 -68 16 -68 3z m58 -68 c-4 -22 -48 -31 -48 -10 0 19 10 27 32 27 13 0
18 -6 16 -17z"/>
<path d="M1484 494 c-20 -29 -11 -69 18 -88 26 -16 70 4 81 37 21 65 -62 108
-99 51z m65 2 c19 -22 10 -70 -13 -75 -20 -3 -46 22 -46 45 0 14 27 44 39 44
5 0 14 -6 20 -14z"/>
<path d="M1610 458 c0 -44 3 -58 14 -58 11 0 16 15 18 53 3 44 6 52 23 52 17
0 20 -8 23 -52 2 -38 7 -53 18 -53 17 0 19 55 4 94 -8 23 -15 26 -55 24 l-45
-1 0 -59z"/>
<path d="M1750 511 c0 -6 12 -9 26 -8 39 3 40 -17 2 -34 -25 -10 -33 -20 -33
-39 0 -23 4 -25 43 -26 l42 -2 0 43 c0 63 -7 75 -46 75 -19 0 -34 -4 -34 -9z
m58 -68 c-4 -22 -48 -31 -48 -10 0 19 10 27 32 27 13 0 18 -6 16 -17z"/>
<path d="M1860 458 c0 -45 3 -58 15 -58 11 0 15 12 15 45 0 31 5 47 15 51 25
10 17 21 -15 21 -30 0 -30 -1 -30 -59z"/>
<path d="M1317 253 c-15 -32 -9 -148 8 -148 6 0 11 22 13 50 2 27 9 53 15 58
9 7 9 10 0 14 -19 7 -16 30 5 42 15 9 15 10 -5 11 -15 0 -27 -10 -36 -27z"/>
<path d="M108 200 c3 -58 7 -73 25 -85 30 -21 44 -19 72 10 21 20 25 34 25 85
0 33 -4 60 -10 60 -5 0 -10 -22 -10 -49 0 -63 -14 -101 -38 -101 -31 0 -42 22
-42 87 0 44 -4 63 -12 63 -10 0 -12 -19 -10 -70z"/>
<path d="M400 260 c0 -5 5 -10 10 -10 6 0 10 5 10 10 0 6 -4 10 -10 10 -5 0
-10 -4 -10 -10z"/>
<path d="M870 260 c0 -5 7 -10 15 -10 8 0 15 5 15 10 0 6 -7 10 -15 10 -8 0
-15 -4 -15 -10z"/>
<path d="M1432 188 c3 -84 20 -112 26 -43 2 19 7 35 11 35 5 0 20 -18 35 -40
14 -22 31 -40 37 -40 7 0 5 10 -5 25 -52 81 -50 71 -21 110 18 23 23 35 14 35
-8 0 -25 -17 -39 -37 l-25 -37 -3 37 c-2 25 -8 37 -18 37 -12 0 -14 -15 -12
-82z"/>
<path d="M932 243 c-27 -51 25 -179 53 -133 3 5 -1 10 -9 10 -12 0 -16 11 -16
45 0 33 4 45 15 45 8 0 15 5 15 10 0 6 -7 10 -15 10 -8 0 -15 7 -15 15 0 20
-17 19 -28 -2z"/>
<path d="M270 163 c0 -76 18 -85 22 -10 3 48 5 52 28 52 23 0 25 -4 28 -52 4
-69 22 -68 22 1 0 62 -11 75 -62 73 l-38 -1 0 -63z"/>
<path d="M400 171 c0 -33 5 -63 10 -66 6 -4 10 18 10 59 0 37 -4 66 -10 66 -6
0 -10 -26 -10 -59z"/>
<path d="M452 218 c3 -7 13 -37 23 -66 9 -29 22 -51 27 -50 6 2 21 32 34 67
14 37 19 61 12 59 -6 -2 -18 -23 -26 -47 -16 -47 -24 -45 -42 12 -6 20 -16 37
-22 37 -6 0 -8 -6 -6 -12z"/>
<path d="M587 212 c-10 -10 -17 -33 -17 -50 0 -39 37 -68 72 -56 21 7 20 9
-12 14 -22 3 -36 11 -38 23 -3 14 4 17 37 17 33 0 41 4 41 18 0 22 -30 52 -52
52 -8 0 -22 -8 -31 -18z m61 -19 c2 -9 -7 -13 -27 -13 -30 0 -39 9 -24 24 11
10 46 3 51 -11z"/>
<path d="M700 163 c0 -36 4 -63 10 -63 6 0 10 20 10 45 0 34 5 48 20 57 28 18
25 25 -10 24 l-30 -1 0 -62z"/>
<path d="M782 218 c-19 -19 -14 -36 13 -54 33 -22 32 -44 -2 -44 -24 -1 -25
-2 -11 -11 23 -13 58 5 58 31 0 11 -11 27 -25 36 -32 21 -32 34 1 34 14 0 23
4 19 10 -8 14 -38 13 -53 -2z"/>
<path d="M870 165 c0 -37 4 -65 10 -65 6 0 10 28 10 65 0 37 -4 65 -10 65 -6
0 -10 -28 -10 -65z"/>
<path d="M1000 220 c0 -5 9 -32 20 -60 l20 -50 -21 -21 c-22 -22 -21 -33 3
-24 25 10 90 165 69 165 -6 0 -16 -18 -22 -40 -7 -22 -15 -40 -19 -40 -4 0
-13 18 -20 40 -12 36 -30 54 -30 30z"/>
<path d="M1190 210 c-35 -35 -21 -90 27 -105 34 -10 77 37 68 73 -12 52 -60
67 -95 32z m69 -22 c11 -31 -2 -62 -27 -66 -29 -4 -49 36 -33 67 15 28 49 27
60 -1z"/>
<path d="M1580 210 c-48 -48 -1 -126 62 -100 21 8 21 9 -7 9 -30 1 -55 16 -55
33 0 4 20 8 45 8 49 0 56 10 29 48 -19 27 -48 28 -74 2z m60 -15 c11 -13 7
-15 -23 -15 -28 0 -35 3 -31 15 4 8 14 15 24 15 10 0 23 -7 30 -15z"/>
<path d="M1690 165 c0 -37 4 -65 10 -65 6 0 10 20 10 44 0 35 5 48 22 60 12 9
19 19 15 22 -4 4 -13 1 -22 -6 -10 -8 -15 -9 -15 -1 0 6 -4 11 -10 11 -6 0
-10 -28 -10 -65z"/>
<path d="M1770 163 c0 -76 18 -85 22 -10 3 44 6 52 23 52 17 0 21 -8 23 -45 4
-61 22 -77 22 -19 0 53 11 72 36 67 15 -2 20 -14 22 -56 2 -28 7 -52 13 -52
12 0 12 86 -1 111 -12 21 -40 25 -58 7 -8 -8 -15 -8 -24 -1 -7 6 -28 10 -45
10 l-33 0 0 -64z"/>
<path d="M1985 221 c-3 -5 7 -11 22 -13 38 -4 39 -22 1 -33 -37 -11 -49 -44
-24 -64 11 -9 20 -10 35 -1 14 7 21 7 21 0 0 -5 5 -10 10 -10 6 0 10 25 10 55
0 43 -4 56 -19 65 -24 13 -48 13 -56 1z m49 -60 c9 -14 -4 -41 -19 -41 -21 0
-28 19 -15 35 14 17 26 19 34 6z"/>
<path d="M2090 169 c0 -32 5 -61 10 -64 6 -4 10 11 10 38 0 47 19 74 45 63 10
-4 15 -19 15 -50 0 -25 5 -48 10 -51 15 -9 13 100 -2 113 -7 6 -30 10 -50 9
l-38 -1 0 -57z"/>
</g>
</svg>
