<?xml version="1.0" standalone="no"?>
<!DOCTYPE svg PUBLIC "-//W3C//DTD SVG 20010904//EN"
 "http://www.w3.org/TR/2001/REC-SVG-20010904/DTD/svg10.dtd">
<svg version="1.0" xmlns="http://www.w3.org/2000/svg"
 width="100.000000pt" height="100.000000pt" viewBox="0 0 100.000000 100.000000"
 preserveAspectRatio="xMidYMid meet">

<g transform="translate(0.000000,100.000000) scale(0.100000,-0.100000)"
fill="#000000" stroke="none">
<path d="M58 984 c-57 -31 -58 -35 -58 -484 0 -451 0 -454 60 -485 43 -22 837
-22 880 0 60 31 60 34 60 485 0 451 0 454 -60 485 -24 12 -76 15 -285 15
l-255 0 0 -130 0 -129 37 22 c72 42 187 22 231 -40 36 -53 42 -91 42 -279 l0
-184 -55 0 -55 0 0 178 c0 193 -6 217 -54 241 -38 18 -97 1 -125 -36 -19 -24
-21 -39 -21 -204 l0 -179 -55 0 -55 0 0 370 0 370 -102 0 c-72 -1 -111 -5
-130 -16z m710 -826 l3 -28 -270 0 -271 0 0 23 c0 13 3 27 7 30 4 4 124 6 267
5 l261 -3 3 -27z"/>
</g>
</svg>
