<?xml version="1.0" standalone="no"?>
<!DOCTYPE svg PUBLIC "-//W3C//DTD SVG 20010904//EN"
 "http://www.w3.org/TR/2001/REC-SVG-20010904/DTD/svg10.dtd">
<svg version="1.0" xmlns="http://www.w3.org/2000/svg"
 width="225.000000pt" height="225.000000pt" viewBox="0 0 225.000000 225.000000"
 preserveAspectRatio="xMidYMid meet">

<g transform="translate(0.000000,225.000000) scale(0.100000,-0.100000)"
fill="#000000" stroke="none">
<path d="M1783 1919 c-46 -13 -100 -71 -114 -121 -21 -79 11 -191 73 -255 l32
-33 -35 0 c-58 0 -81 -42 -33 -60 17 -7 38 -7 60 -1 37 10 39 9 24 -20 -9 -16
-7 -19 15 -19 19 0 28 -7 36 -27 6 -16 18 -36 26 -45 15 -17 9 -18 -115 -18
-124 0 -132 -1 -159 -24 l-28 -24 0 -192 0 -192 29 -25 c39 -33 74 -27 191 31
232 116 285 246 153 378 -23 23 -43 45 -43 48 -1 3 -11 21 -23 40 -12 19 -22
38 -22 43 0 4 18 7 41 7 33 0 40 3 35 15 -3 8 -9 22 -12 30 -5 13 -2 14 21 5
40 -15 73 -12 84 8 14 25 -5 52 -36 52 l-27 0 26 28 c67 71 94 186 63 267 -34
91 -149 137 -262 104z m172 -32 c22 -12 50 -38 63 -57 21 -30 23 -44 19 -100
-2 -38 -13 -82 -25 -105 -23 -46 -104 -125 -127 -125 -19 0 -19 -9 0 -34 23
-31 18 -36 -30 -36 l-46 0 15 28 c15 28 14 29 -32 64 -28 20 -59 57 -77 89
-25 45 -30 65 -30 125 0 61 4 75 27 106 15 19 42 42 60 51 49 24 134 22 183
-6z m-165 -408 c0 -11 -66 -23 -81 -13 -9 5 -8 10 4 19 17 13 77 8 77 -6z
m215 12 c3 -5 0 -13 -5 -16 -16 -10 -82 4 -75 16 8 12 72 12 80 0z"/>
<path d="M1951 1293 c83 -70 110 -163 69 -242 -26 -51 -108 -124 -194 -172
l-71 -39 177 0 c173 0 178 1 205 24 l28 24 0 192 0 192 -28 24 c-25 22 -37 24
-123 24 l-96 0 33 -27z"/>
<path d="M112 1287 c-21 -22 -22 -32 -22 -214 l0 -192 26 -20 c30 -24 97 -29
88 -8 -2 7 -1 24 4 37 7 20 4 28 -20 48 -36 30 -35 51 2 87 17 16 28 35 26 42
-9 23 12 62 43 78 40 20 81 19 110 -4 18 -13 35 -17 61 -14 21 3 40 1 44 -5 4
-7 18 -6 42 4 38 16 96 7 142 -22 l22 -14 0 88 c0 80 -2 91 -23 110 -23 21
-30 22 -273 22 -249 0 -251 0 -272 -23z"/>
<path d="M281 1115 c-31 -14 -33 -18 -28 -48 4 -29 1 -36 -24 -51 -39 -23 -38
-54 2 -69 24 -9 29 -16 24 -32 -4 -11 -9 -32 -12 -47 l-5 -28 196 0 c196 0
197 0 221 25 23 22 25 32 25 108 l0 83 -39 22 c-50 28 -110 29 -145 1 l-26
-21 -19 23 c-17 22 -20 22 -42 7 -22 -14 -25 -14 -50 13 -31 33 -32 33 -78 14z"/>
<path d="M690 1067 c0 -3 11 -18 25 -33 28 -30 31 -54 13 -87 -6 -12 -10 -39
-9 -60 2 -32 -3 -43 -37 -77 -35 -36 -45 -40 -88 -40 -31 0 -69 9 -101 24 -44
21 -54 22 -64 10 -6 -8 -29 -19 -50 -26 -35 -10 -43 -9 -69 10 -16 12 -36 22
-44 22 -8 0 -18 5 -21 10 -3 6 -12 10 -18 10 -19 -1 25 -30 45 -30 10 0 18 -4
18 -8 0 -11 45 -32 68 -32 10 0 34 9 54 19 36 20 36 20 89 -1 39 -14 69 -19
108 -16 47 4 59 10 88 42 30 32 34 43 32 82 -2 24 2 49 9 56 23 23 14 72 -18
103 -16 16 -30 26 -30 22z"/>
<path d="M402 751 c-8 -4 -12 -19 -10 -32 2 -20 9 -24 37 -24 41 0 62 25 42
49 -15 17 -48 21 -69 7z m63 -26 c0 -13 -8 -21 -24 -23 -28 -4 -46 11 -37 33
9 25 61 16 61 -10z"/>
<path d="M302 708 c-18 -18 -15 -36 8 -48 28 -15 62 4 58 33 -3 25 -46 35 -66
15z m55 -14 c3 -9 0 -20 -8 -24 -18 -12 -50 7 -43 25 8 20 43 19 51 -1z"/>
<path d="M221 681 c-19 -12 -6 -41 19 -41 25 0 38 29 19 41 -8 5 -16 9 -19 9
-3 0 -11 -4 -19 -9z m37 -19 c2 -7 -6 -12 -17 -12 -21 0 -27 11 -14 24 9 9 26
2 31 -12z"/>
<path d="M137 664 c-16 -16 -6 -34 19 -34 19 0 25 5 22 17 -3 19 -29 29 -41
17z m33 -14 c0 -5 -7 -10 -16 -10 -8 0 -12 5 -9 10 3 6 10 10 16 10 5 0 9 -4
9 -10z"/>
<path d="M1601 526 c-7 -8 -11 -27 -9 -43 4 -33 37 -43 58 -18 15 18 0 21 -18
3 -16 -16 -35 3 -30 28 3 14 12 18 33 17 28 -2 29 -1 11 12 -25 19 -31 19 -45
1z"/>
<path d="M160 517 c-32 -16 -40 -57 -12 -57 11 0 23 7 26 16 4 10 15 14 33 12
45 -5 33 -29 -21 -43 -51 -13 -66 -27 -66 -62 0 -34 28 -56 64 -48 17 3 47 6
66 6 l35 -1 -5 82 c-5 76 -7 84 -30 95 -32 16 -58 16 -90 0z m80 -112 c0 -18
-45 -49 -60 -40 -14 9 -13 42 3 48 26 11 57 7 57 -8z"/>
<path d="M360 518 c-45 -24 -63 -89 -39 -141 12 -27 47 -47 83 -47 28 0 76 35
76 56 0 19 -46 18 -54 -1 -7 -18 -37 -20 -54 -3 -15 15 -16 63 -2 89 13 23 48
25 56 4 8 -19 54 -20 54 -2 0 38 -77 67 -120 45z"/>
<path d="M577 513 c-11 -11 -17 -13 -17 -5 0 7 -11 12 -25 12 -25 0 -25 -1
-25 -90 0 -89 0 -90 25 -90 24 0 25 2 25 64 0 67 15 94 45 82 11 -4 15 -22 15
-75 0 -65 1 -69 25 -73 24 -5 24 -3 27 65 2 55 7 72 21 81 28 17 47 -17 47
-86 0 -52 2 -58 20 -58 20 0 21 5 18 82 -3 78 -4 83 -31 98 -25 14 -30 13 -55
-1 -24 -14 -31 -14 -47 -3 -25 19 -47 18 -68 -3z"/>
<path d="M863 490 c0 -25 2 -35 4 -22 2 12 2 32 0 45 -2 12 -4 2 -4 -23z"/>
<path d="M962 493 c4 -45 24 -55 21 -11 -2 48 -2 48 -14 48 -6 0 -9 -16 -7
-37z"/>
<path d="M1248 519 c-6 -17 3 -69 11 -69 7 0 6 69 -2 76 -3 3 -7 0 -9 -7z"/>
<path d="M1520 490 c0 -22 5 -40 10 -40 6 0 10 18 10 40 0 22 -4 40 -10 40 -5
0 -10 -18 -10 -40z"/>
<path d="M1740 490 c0 -22 5 -40 10 -40 6 0 10 18 10 40 0 22 -4 40 -10 40 -5
0 -10 -18 -10 -40z"/>
<path d="M1783 490 c0 -25 2 -35 4 -22 2 12 2 32 0 45 -2 12 -4 2 -4 -23z"/>
<path d="M2038 518 c-7 -21 6 -61 22 -66 12 -4 13 -2 4 9 -6 8 -9 26 -7 42 4
27 -11 38 -19 15z"/>
<path d="M891 478 c1 -30 2 -30 8 -9 9 35 29 37 34 4 4 -27 4 -27 6 5 1 28 -2
32 -24 32 -22 0 -25 -4 -24 -32z"/>
<path d="M997 498 c-11 -32 32 -64 49 -37 4 8 0 9 -15 4 -12 -4 -21 -2 -21 4
0 6 9 11 21 11 27 0 20 24 -8 28 -12 2 -23 -3 -26 -10z m40 -4 c-3 -3 -12 -4
-19 -1 -8 3 -5 6 6 6 11 1 17 -2 13 -5z"/>
<path d="M1060 486 c0 -14 5 -28 10 -31 6 -3 10 5 10 19 0 13 6 27 13 29 6 3
2 6 -10 6 -18 1 -23 -5 -23 -23z"/>
<path d="M1111 478 c2 -31 2 -31 6 -5 2 15 10 27 18 27 8 0 16 -12 18 -27 4
-26 4 -26 6 5 1 28 -2 32 -24 32 -22 0 -25 -4 -24 -32z"/>
<path d="M1194 501 c18 -7 18 -8 3 -14 -27 -10 -21 -37 8 -35 20 2 25 8 25 30
0 24 -4 28 -27 27 -24 0 -25 -2 -9 -8z m21 -31 c-3 -5 -10 -10 -16 -10 -5 0
-9 5 -9 10 0 6 7 10 16 10 8 0 12 -4 9 -10z"/>
<path d="M1280 486 c0 -14 5 -28 10 -31 6 -4 10 7 10 24 0 17 -4 31 -10 31 -5
0 -10 -11 -10 -24z"/>
<path d="M1313 494 c-3 -8 1 -23 10 -31 21 -21 47 -9 47 22 0 20 -5 25 -25 25
-14 0 -28 -7 -32 -16z m45 -11 c-4 -22 -22 -20 -26 1 -2 10 3 16 13 16 10 0
15 -7 13 -17z"/>
<path d="M1391 478 c2 -31 2 -31 6 -5 2 15 10 27 18 27 8 0 16 -12 18 -27 4
-26 4 -26 6 5 1 28 -2 32 -24 32 -22 0 -25 -4 -24 -32z"/>
<path d="M1474 502 c18 -8 18 -9 3 -15 -18 -7 -24 -37 -7 -37 5 0 7 7 4 15 -8
20 6 19 21 -2 10 -14 12 -12 11 13 -1 23 -6 29 -26 31 -21 2 -22 1 -6 -5z"/>
<path d="M1674 495 c-8 -21 2 -45 19 -45 20 0 40 27 33 45 -7 19 -45 20 -52 0z
m36 -16 c0 -24 -23 -21 -28 4 -2 10 3 17 12 17 10 0 16 -9 16 -21z"/>
<path d="M1804 496 c-12 -31 35 -62 52 -35 4 8 0 9 -15 4 -12 -4 -21 -2 -21 4
0 6 9 11 21 11 27 0 19 24 -9 28 -13 2 -25 -3 -28 -12z"/>
<path d="M1877 503 c-4 -3 -7 -15 -7 -25 0 -16 11 -23 33 -19 15 2 6 -18 -10
-23 -11 -3 -7 -4 7 -3 21 2 25 8 28 40 3 33 1 37 -21 37 -13 0 -27 -3 -30 -7z
m33 -17 c0 -8 -4 -17 -9 -21 -12 -7 -24 12 -16 25 9 15 25 12 25 -4z"/>
<path d="M1940 480 c0 -16 5 -30 10 -30 6 0 10 14 10 30 0 17 -4 30 -10 30 -5
0 -10 -13 -10 -30z"/>
<path d="M1994 501 c19 -7 19 -8 -3 -14 -28 -7 -23 -32 7 -33 18 -1 22 4 22
27 0 24 -4 29 -22 28 -21 0 -22 -1 -4 -8z m16 -25 c0 -3 -4 -8 -10 -11 -5 -3
-10 -1 -10 4 0 6 5 11 10 11 6 0 10 -2 10 -4z"/>
<path d="M2076 494 c-12 -31 33 -60 50 -33 4 8 0 9 -15 4 -12 -4 -21 -2 -21 4
0 6 9 11 21 11 26 0 20 24 -8 28 -12 2 -23 -4 -27 -14z"/>
<path d="M861 378 c1 -24 3 -35 6 -26 2 9 14 18 26 20 34 5 29 42 -5 46 -27 3
-28 2 -27 -40z m42 17 c1 -5 -6 -11 -15 -13 -11 -2 -18 3 -18 13 0 17 30 18
33 0z"/>
<path d="M1651 406 c-8 -10 -11 -26 -7 -42 5 -20 12 -25 33 -22 15 2 28 10 31
18 4 12 2 13 -9 3 -21 -20 -39 -15 -39 11 0 31 16 42 37 24 14 -11 16 -11 11
2 -6 21 -42 24 -57 6z"/>
<path d="M2038 409 c-6 -17 3 -69 11 -69 7 0 6 69 -2 76 -3 3 -7 0 -9 -7z"/>
<path d="M1868 404 c-8 -7 4 -64 13 -64 5 0 6 7 3 15 -4 8 -1 21 5 29 9 10 8
15 -3 19 -8 3 -16 4 -18 1z"/>
<path d="M938 368 c-3 -15 -1 -28 4 -28 4 0 8 8 8 18 0 10 5 23 10 28 7 7 6
11 -4 11 -8 0 -16 -13 -18 -29z"/>
<path d="M982 383 c-13 -26 -4 -43 24 -43 22 0 25 4 22 27 -4 33 -32 43 -46
16z m36 -16 c2 -10 -3 -17 -12 -17 -10 0 -16 9 -16 21 0 24 23 21 28 -4z"/>
<path d="M1056 393 c-14 -14 -5 -45 14 -50 11 -3 17 -9 15 -14 -3 -4 -13 -5
-23 -2 -13 5 -15 3 -5 -7 21 -23 43 -4 43 38 0 30 -4 38 -19 39 -10 1 -22 -1
-25 -4z m34 -29 c0 -8 -7 -14 -15 -14 -15 0 -21 21 -9 33 10 9 24 -2 24 -19z"/>
<path d="M1121 366 c1 -21 3 -25 6 -11 3 11 9 25 14 31 5 7 3 11 -6 11 -10 0
-15 -10 -14 -31z"/>
<path d="M1164 389 c-4 -7 0 -9 13 -5 14 4 19 1 20 -14 1 -12 -4 -20 -13 -20
-8 0 -12 5 -9 10 3 6 1 10 -4 10 -6 0 -11 -7 -11 -15 0 -9 9 -15 25 -15 21 0
25 5 25 30 0 23 -5 30 -19 30 -11 0 -23 -5 -27 -11z"/>
<path d="M1231 366 c1 -27 2 -28 7 -8 4 13 12 23 17 23 6 0 13 -10 17 -23 6
-22 6 -21 7 5 1 34 21 36 21 2 0 -14 5 -25 11 -25 6 0 9 12 7 28 -3 25 -7 27
-45 28 -42 0 -43 -1 -42 -30z"/>
<path d="M1330 370 c0 -16 5 -30 10 -30 6 0 10 11 10 25 0 34 20 32 21 -2 1
-26 1 -27 7 -5 4 13 12 23 17 23 6 0 13 -10 17 -23 6 -20 7 -18 5 7 -2 28 -5
30 -44 33 -42 3 -43 2 -43 -28z"/>
<path d="M1442 370 c0 -19 2 -27 5 -17 2 9 2 25 0 35 -3 9 -5 1 -5 -18z"/>
<path d="M1471 365 c1 -28 1 -28 8 -6 9 35 29 37 34 4 4 -27 4 -27 6 4 1 29
-2 33 -24 31 -21 -2 -25 -7 -24 -33z"/>
<path d="M1546 393 c-14 -14 -5 -45 14 -50 11 -3 17 -9 15 -14 -3 -4 -13 -5
-23 -2 -13 5 -15 3 -5 -7 21 -23 43 -4 43 38 0 30 -4 38 -19 39 -10 1 -22 -1
-25 -4z m34 -29 c0 -16 -16 -19 -25 -4 -8 13 4 32 16 25 5 -4 9 -13 9 -21z"/>
<path d="M1731 387 c-17 -21 -3 -49 23 -45 15 2 21 10 21 28 0 28 -26 38 -44
17z m37 -20 c2 -10 -3 -17 -12 -17 -10 0 -16 9 -16 21 0 24 23 21 28 -4z"/>
<path d="M1801 365 c1 -28 1 -28 8 -6 9 35 29 37 34 4 4 -27 4 -27 6 4 1 29
-2 33 -24 31 -21 -2 -25 -7 -24 -33z"/>
<path d="M1906 385 c-9 -24 4 -45 28 -44 16 1 17 2 4 6 -10 2 -18 13 -18 24 0
21 16 26 23 7 2 -7 8 -10 12 -6 11 10 -4 28 -25 28 -10 0 -20 -7 -24 -15z"/>
<path d="M1975 389 c-8 -12 -8 -11 20 -28 19 -12 19 -12 -2 -8 -13 3 -23 1
-23 -4 0 -5 11 -9 25 -9 29 0 32 17 8 37 -17 14 -17 14 0 9 11 -3 16 -2 12 4
-8 13 -32 13 -40 -1z"/>
</g>
</svg>
