<?xml version="1.0" standalone="no"?>
<!DOCTYPE svg PUBLIC "-//W3C//DTD SVG 20010904//EN"
 "http://www.w3.org/TR/2001/REC-SVG-20010904/DTD/svg10.dtd">
<svg version="1.0" xmlns="http://www.w3.org/2000/svg"
 width="224.000000pt" height="225.000000pt" viewBox="0 0 224.000000 225.000000"
 preserveAspectRatio="xMidYMid meet">

<g transform="translate(0.000000,225.000000) scale(0.100000,-0.100000)"
fill="#000000" stroke="none">
<path d="M998 2058 l-126 -183 69 -3 69 -3 0 -214 c0 -118 -3 -215 -8 -215
-11 0 -302 294 -302 305 0 5 19 28 42 52 29 30 37 44 27 47 -29 9 -421 77
-425 73 -2 -2 14 -102 36 -222 22 -121 40 -222 40 -224 0 -3 23 17 50 44 l50
49 150 -149 c83 -82 150 -152 150 -155 0 -3 -98 -4 -217 -3 l-218 2 -5 64 -5
64 -182 -126 c-100 -69 -182 -128 -182 -131 0 -4 351 -250 368 -258 3 -1 6 28
6 65 l0 68 220 3 220 2 -157 -157 -158 -158 -45 45 c-24 24 -47 42 -49 39 -12
-11 -82 -439 -72 -439 16 0 430 73 435 77 3 2 -16 25 -42 51 l-47 47 155 155
155 155 0 -222 0 -222 -68 -3 -69 -3 126 -182 c69 -100 129 -181 133 -180 4 1
64 83 133 182 l124 180 -64 3 -65 3 0 217 0 217 155 -155 155 -155 -47 -47
c-45 -46 -45 -47 -22 -52 75 -17 413 -75 417 -72 4 4 -64 403 -74 435 -3 10
-19 0 -52 -32 l-47 -47 -155 155 -155 155 220 -2 220 -3 5 -66 5 -67 182 127
c100 69 182 128 182 131 1 3 -81 62 -182 132 l-182 127 -3 -65 -3 -64 -217 0
-217 0 155 155 155 155 46 -46 47 -46 11 53 c20 99 71 393 68 394 -1 1 -102
-17 -225 -39 l-222 -41 47 -48 48 -47 -153 -153 -152 -152 0 217 0 217 65 3
64 3 -124 180 c-69 99 -129 181 -133 183 -4 1 -64 -80 -134 -180z m243 -706
c235 -122 150 -482 -114 -482 -91 0 -184 58 -230 144 -34 64 -31 165 7 234 68
123 214 168 337 104z"/>
<path d="M1176 1341 c-4 -5 -29 -9 -56 -7 -31 1 -49 -2 -47 -9 6 -16 95 -15
108 1 7 8 9 17 6 20 -3 3 -8 1 -11 -5z"/>
<path d="M1109 1294 c-9 -11 -10 -54 -7 -164 3 -83 2 -150 -3 -150 -12 0 -56
61 -74 103 -18 44 -19 109 -1 159 18 49 -1 37 -25 -16 -23 -51 -24 -136 -3
-182 9 -18 34 -49 55 -69 l39 -35 -28 -6 c-48 -10 -48 -12 -1 -13 25 -1 50 -6
56 -12 8 -8 13 -8 17 0 4 6 31 12 59 12 29 1 41 4 27 6 -50 8 -51 12 -7 55 40
41 67 99 67 145 0 35 -30 120 -50 145 l-20 23 16 -40 c36 -86 14 -194 -51
-255 l-26 -24 3 156 c3 137 1 158 -14 167 -12 7 -20 6 -29 -5z"/>
<path d="M979 1277 c-54 -36 -79 -82 -79 -144 0 -55 24 -117 54 -142 20 -17
20 -13 1 32 -8 20 -15 61 -15 92 0 58 14 95 57 153 29 38 27 39 -18 9z"/>
<path d="M1258 1267 c11 -12 31 -44 43 -71 25 -57 22 -131 -7 -187 l-17 -34
23 20 c30 27 60 92 60 134 0 49 -36 117 -74 141 -44 26 -55 25 -28 -3z"/>
</g>
</svg>
